# xmcd
#
# Track frame offsets:
#	150
#	20273
#	40849
#	59501
#	83504
#	102941
#	123982
#	140832
#	159158
#	179071
#	198132
#	218411
#	243385
#	275997
#	293984
#	315222
#
# Disc length: 4460 seconds
#
# Revision: 2
# Processed by: cddbd v1.5.2PL0 Copyright (c) Steve Scherf et al.
# Submitted via: EasyCDDAExtractor 15.2.5.1
#
DISCID=df116a10
DTITLE=邰正宵 - 用情太深(香港版粵語)
DYEAR=1995
DGENRE=Alternative
TTITLE0=怎樣你才會喜歡我？
TTITLE1=愛不到要偷
TTITLE2=用情太深
TTITLE3=知己
TTITLE4=O.R.F.A
TTITLE5=掩飾
TTITLE6=想你想得很孤寂
TTITLE7=千紙鶴
TTITLE8=初戀
TTITLE9=愛的傳說
TTITLE10=火燙的夢
TTITLE11=幾翻風雨
TTITLE12=夜夜寂寞
TTITLE13=用情太深(真情回憶版)
TTITLE14=找一個字代替
TTITLE15=九佰九拾九朵玖瑰
EXTD=\n
EXTT0=
EXTT1=
EXTT2=
EXTT3=
EXTT4=
EXTT5=
EXTT6=
EXTT7=
EXTT8=
EXTT9=
EXTT10=
EXTT11=
EXTT12=
EXTT13=
EXTT14=
EXTT15=
PLAYORDER=
